<mxfile host="app.diagrams.net" modified="2022-01-24T03:33:58.728Z" agent="5.0 (Windows NT 10.0; Win64; x64) AppleWebKit/537.36 (KHTML, like Gecko) Chrome/97.0.4692.71 Safari/537.36" etag="LsHQEGVFiBckLRKGKdQw" version="16.4.5" type="github">
  <diagram id="2hZPyn2QZB2IQ_optIyz" name="Page-1">
    <mxGraphModel dx="2725" dy="1036" grid="1" gridSize="10" guides="1" tooltips="1" connect="1" arrows="1" fold="1" page="1" pageScale="1" pageWidth="900" pageHeight="1600" math="0" shadow="0">
      <root>
        <mxCell id="0" />
        <mxCell id="1" parent="0" />
        <mxCell id="8vPuVBHi-M925OJZAEt_-29" style="edgeStyle=none;rounded=0;orthogonalLoop=1;jettySize=auto;html=1;entryX=1;entryY=0;entryDx=0;entryDy=0;endArrow=none;endFill=0;fillColor=#60a917;strokeColor=#2D7600;" parent="1" source="8vPuVBHi-M925OJZAEt_-2" target="8vPuVBHi-M925OJZAEt_-11" edge="1">
          <mxGeometry relative="1" as="geometry" />
        </mxCell>
        <mxCell id="8vPuVBHi-M925OJZAEt_-30" style="edgeStyle=none;rounded=0;orthogonalLoop=1;jettySize=auto;html=1;entryX=0;entryY=0;entryDx=0;entryDy=0;endArrow=none;endFill=0;exitX=0;exitY=0;exitDx=0;exitDy=0;fillColor=#60a917;strokeColor=#2D7600;" parent="1" source="8vPuVBHi-M925OJZAEt_-12" target="8vPuVBHi-M925OJZAEt_-12" edge="1">
          <mxGeometry relative="1" as="geometry" />
        </mxCell>
        <mxCell id="8vPuVBHi-M925OJZAEt_-31" style="edgeStyle=none;rounded=0;orthogonalLoop=1;jettySize=auto;html=1;exitX=1;exitY=1;exitDx=0;exitDy=0;entryX=0;entryY=0;entryDx=0;entryDy=0;endArrow=none;endFill=0;fillColor=#60a917;strokeColor=#2D7600;" parent="1" source="8vPuVBHi-M925OJZAEt_-2" target="8vPuVBHi-M925OJZAEt_-12" edge="1">
          <mxGeometry relative="1" as="geometry" />
        </mxCell>
        <mxCell id="8vPuVBHi-M925OJZAEt_-32" style="edgeStyle=none;rounded=0;orthogonalLoop=1;jettySize=auto;html=1;entryX=0;entryY=0;entryDx=0;entryDy=0;endArrow=none;endFill=0;fillColor=#60a917;strokeColor=#2D7600;" parent="1" source="8vPuVBHi-M925OJZAEt_-2" target="8vPuVBHi-M925OJZAEt_-16" edge="1">
          <mxGeometry relative="1" as="geometry" />
        </mxCell>
        <mxCell id="8vPuVBHi-M925OJZAEt_-33" style="edgeStyle=none;rounded=0;orthogonalLoop=1;jettySize=auto;html=1;endArrow=none;endFill=0;fillColor=#60a917;strokeColor=#2D7600;" parent="1" source="8vPuVBHi-M925OJZAEt_-2" edge="1">
          <mxGeometry relative="1" as="geometry">
            <mxPoint x="480" y="590" as="targetPoint" />
          </mxGeometry>
        </mxCell>
        <mxCell id="8vPuVBHi-M925OJZAEt_-2" value="" style="ellipse;whiteSpace=wrap;html=1;fillColor=#60a917;strokeColor=#2D7600;fontColor=#ffffff;" parent="1" vertex="1">
          <mxGeometry x="290" y="510" width="30" height="30" as="geometry" />
        </mxCell>
        <mxCell id="8vPuVBHi-M925OJZAEt_-35" style="edgeStyle=none;rounded=0;orthogonalLoop=1;jettySize=auto;html=1;exitX=0;exitY=1;exitDx=0;exitDy=0;entryX=0.5;entryY=0;entryDx=0;entryDy=0;endArrow=none;endFill=0;fillColor=#60a917;strokeColor=#2D7600;" parent="1" source="8vPuVBHi-M925OJZAEt_-3" target="8vPuVBHi-M925OJZAEt_-15" edge="1">
          <mxGeometry relative="1" as="geometry" />
        </mxCell>
        <mxCell id="8vPuVBHi-M925OJZAEt_-36" style="edgeStyle=none;rounded=0;orthogonalLoop=1;jettySize=auto;html=1;exitX=0.5;exitY=1;exitDx=0;exitDy=0;entryX=0;entryY=0;entryDx=0;entryDy=0;endArrow=none;endFill=0;fillColor=#60a917;strokeColor=#2D7600;" parent="1" source="8vPuVBHi-M925OJZAEt_-3" target="8vPuVBHi-M925OJZAEt_-16" edge="1">
          <mxGeometry relative="1" as="geometry" />
        </mxCell>
        <mxCell id="8vPuVBHi-M925OJZAEt_-3" value="" style="ellipse;whiteSpace=wrap;html=1;fillColor=#60a917;strokeColor=#2D7600;fontColor=#ffffff;" parent="1" vertex="1">
          <mxGeometry x="350" y="510" width="30" height="30" as="geometry" />
        </mxCell>
        <mxCell id="8vPuVBHi-M925OJZAEt_-8" style="edgeStyle=none;rounded=0;orthogonalLoop=1;jettySize=auto;html=1;entryX=1;entryY=0;entryDx=0;entryDy=0;endArrow=none;endFill=0;fillColor=#60a917;strokeColor=#2D7600;" parent="1" source="8vPuVBHi-M925OJZAEt_-4" target="8vPuVBHi-M925OJZAEt_-2" edge="1">
          <mxGeometry relative="1" as="geometry" />
        </mxCell>
        <mxCell id="8vPuVBHi-M925OJZAEt_-9" style="edgeStyle=none;rounded=0;orthogonalLoop=1;jettySize=auto;html=1;exitX=0.5;exitY=1;exitDx=0;exitDy=0;entryX=0.5;entryY=0;entryDx=0;entryDy=0;endArrow=none;endFill=0;fillColor=#60a917;strokeColor=#2D7600;" parent="1" source="8vPuVBHi-M925OJZAEt_-4" target="8vPuVBHi-M925OJZAEt_-3" edge="1">
          <mxGeometry relative="1" as="geometry" />
        </mxCell>
        <mxCell id="8vPuVBHi-M925OJZAEt_-10" style="edgeStyle=none;rounded=0;orthogonalLoop=1;jettySize=auto;html=1;entryX=0;entryY=0;entryDx=0;entryDy=0;endArrow=none;endFill=0;fillColor=#60a917;strokeColor=#2D7600;" parent="1" source="8vPuVBHi-M925OJZAEt_-4" target="8vPuVBHi-M925OJZAEt_-5" edge="1">
          <mxGeometry relative="1" as="geometry" />
        </mxCell>
        <mxCell id="8vPuVBHi-M925OJZAEt_-4" value="" style="ellipse;whiteSpace=wrap;html=1;fillColor=#60a917;strokeColor=#2D7600;fontColor=#ffffff;" parent="1" vertex="1">
          <mxGeometry x="350" y="450" width="30" height="30" as="geometry" />
        </mxCell>
        <mxCell id="8vPuVBHi-M925OJZAEt_-34" style="edgeStyle=none;rounded=0;orthogonalLoop=1;jettySize=auto;html=1;entryX=0.5;entryY=0;entryDx=0;entryDy=0;endArrow=none;endFill=0;fillColor=#60a917;strokeColor=#2D7600;" parent="1" source="8vPuVBHi-M925OJZAEt_-5" target="8vPuVBHi-M925OJZAEt_-12" edge="1">
          <mxGeometry relative="1" as="geometry" />
        </mxCell>
        <mxCell id="8vPuVBHi-M925OJZAEt_-37" style="edgeStyle=none;rounded=0;orthogonalLoop=1;jettySize=auto;html=1;entryX=0.5;entryY=0;entryDx=0;entryDy=0;endArrow=none;endFill=0;fillColor=#60a917;strokeColor=#2D7600;" parent="1" target="8vPuVBHi-M925OJZAEt_-15" edge="1">
          <mxGeometry relative="1" as="geometry">
            <mxPoint x="425" y="540" as="sourcePoint" />
          </mxGeometry>
        </mxCell>
        <mxCell id="8vPuVBHi-M925OJZAEt_-5" value="" style="ellipse;whiteSpace=wrap;html=1;fillColor=#60a917;strokeColor=#2D7600;fontColor=#ffffff;" parent="1" vertex="1">
          <mxGeometry x="410" y="510" width="30" height="30" as="geometry" />
        </mxCell>
        <mxCell id="8vPuVBHi-M925OJZAEt_-18" style="edgeStyle=none;rounded=0;orthogonalLoop=1;jettySize=auto;html=1;exitX=0;exitY=1;exitDx=0;exitDy=0;entryX=0;entryY=1;entryDx=0;entryDy=0;endArrow=none;endFill=0;fillColor=#60a917;strokeColor=#2D7600;" parent="1" source="8vPuVBHi-M925OJZAEt_-3" target="8vPuVBHi-M925OJZAEt_-3" edge="1">
          <mxGeometry relative="1" as="geometry" />
        </mxCell>
        <mxCell id="8vPuVBHi-M925OJZAEt_-20" style="edgeStyle=none;rounded=0;orthogonalLoop=1;jettySize=auto;html=1;exitX=1;exitY=0;exitDx=0;exitDy=0;entryX=0;entryY=1;entryDx=0;entryDy=0;endArrow=none;endFill=0;fillColor=#60a917;strokeColor=#2D7600;" parent="1" source="8vPuVBHi-M925OJZAEt_-11" target="8vPuVBHi-M925OJZAEt_-3" edge="1">
          <mxGeometry relative="1" as="geometry" />
        </mxCell>
        <mxCell id="8vPuVBHi-M925OJZAEt_-21" style="edgeStyle=none;rounded=0;orthogonalLoop=1;jettySize=auto;html=1;exitX=1;exitY=0;exitDx=0;exitDy=0;entryX=0.5;entryY=1;entryDx=0;entryDy=0;endArrow=none;endFill=0;fillColor=#60a917;strokeColor=#2D7600;" parent="1" source="8vPuVBHi-M925OJZAEt_-11" target="8vPuVBHi-M925OJZAEt_-5" edge="1">
          <mxGeometry relative="1" as="geometry" />
        </mxCell>
        <mxCell id="8vPuVBHi-M925OJZAEt_-11" value="" style="ellipse;whiteSpace=wrap;html=1;fillColor=#60a917;strokeColor=#2D7600;fontColor=#ffffff;" parent="1" vertex="1">
          <mxGeometry x="230" y="585" width="30" height="30" as="geometry" />
        </mxCell>
        <mxCell id="8vPuVBHi-M925OJZAEt_-23" style="edgeStyle=none;rounded=0;orthogonalLoop=1;jettySize=auto;html=1;exitX=0.5;exitY=0;exitDx=0;exitDy=0;entryX=0.5;entryY=1;entryDx=0;entryDy=0;endArrow=none;endFill=0;fillColor=#60a917;strokeColor=#2D7600;" parent="1" source="8vPuVBHi-M925OJZAEt_-12" target="8vPuVBHi-M925OJZAEt_-3" edge="1">
          <mxGeometry relative="1" as="geometry" />
        </mxCell>
        <mxCell id="8vPuVBHi-M925OJZAEt_-12" value="" style="ellipse;whiteSpace=wrap;html=1;fillColor=#60a917;strokeColor=#2D7600;fontColor=#ffffff;" parent="1" vertex="1">
          <mxGeometry x="350" y="585" width="30" height="30" as="geometry" />
        </mxCell>
        <mxCell id="8vPuVBHi-M925OJZAEt_-25" style="edgeStyle=none;rounded=0;orthogonalLoop=1;jettySize=auto;html=1;exitX=0;exitY=0;exitDx=0;exitDy=0;entryX=1;entryY=1;entryDx=0;entryDy=0;endArrow=none;endFill=0;fillColor=#60a917;strokeColor=#2D7600;" parent="1" source="8vPuVBHi-M925OJZAEt_-13" target="8vPuVBHi-M925OJZAEt_-5" edge="1">
          <mxGeometry relative="1" as="geometry" />
        </mxCell>
        <mxCell id="8vPuVBHi-M925OJZAEt_-26" style="edgeStyle=none;rounded=0;orthogonalLoop=1;jettySize=auto;html=1;endArrow=none;endFill=0;fillColor=#60a917;strokeColor=#2D7600;" parent="1" source="8vPuVBHi-M925OJZAEt_-13" edge="1">
          <mxGeometry relative="1" as="geometry">
            <mxPoint x="370" y="540" as="targetPoint" />
          </mxGeometry>
        </mxCell>
        <mxCell id="8vPuVBHi-M925OJZAEt_-13" value="" style="ellipse;whiteSpace=wrap;html=1;fillColor=#60a917;strokeColor=#2D7600;fontColor=#ffffff;" parent="1" vertex="1">
          <mxGeometry x="470" y="585" width="30" height="30" as="geometry" />
        </mxCell>
        <mxCell id="8vPuVBHi-M925OJZAEt_-22" style="edgeStyle=none;rounded=0;orthogonalLoop=1;jettySize=auto;html=1;exitX=0.5;exitY=0;exitDx=0;exitDy=0;entryX=0.5;entryY=1;entryDx=0;entryDy=0;endArrow=none;endFill=0;fillColor=#60a917;strokeColor=#2D7600;" parent="1" source="8vPuVBHi-M925OJZAEt_-15" target="8vPuVBHi-M925OJZAEt_-2" edge="1">
          <mxGeometry relative="1" as="geometry" />
        </mxCell>
        <mxCell id="8vPuVBHi-M925OJZAEt_-15" value="" style="ellipse;whiteSpace=wrap;html=1;fillColor=#60a917;strokeColor=#2D7600;fontColor=#ffffff;" parent="1" vertex="1">
          <mxGeometry x="290" y="585" width="30" height="30" as="geometry" />
        </mxCell>
        <mxCell id="8vPuVBHi-M925OJZAEt_-24" style="edgeStyle=none;rounded=0;orthogonalLoop=1;jettySize=auto;html=1;exitX=0.5;exitY=0;exitDx=0;exitDy=0;entryX=0.5;entryY=1;entryDx=0;entryDy=0;endArrow=none;endFill=0;fillColor=#60a917;strokeColor=#2D7600;" parent="1" source="8vPuVBHi-M925OJZAEt_-16" target="8vPuVBHi-M925OJZAEt_-5" edge="1">
          <mxGeometry relative="1" as="geometry" />
        </mxCell>
        <mxCell id="8vPuVBHi-M925OJZAEt_-16" value="" style="ellipse;whiteSpace=wrap;html=1;fillColor=#60a917;strokeColor=#2D7600;fontColor=#ffffff;" parent="1" vertex="1">
          <mxGeometry x="410" y="585" width="30" height="30" as="geometry" />
        </mxCell>
        <mxCell id="8vPuVBHi-M925OJZAEt_-54" style="edgeStyle=none;rounded=0;orthogonalLoop=1;jettySize=auto;html=1;entryX=0.5;entryY=1;entryDx=0;entryDy=0;endArrow=none;endFill=0;fillColor=#60a917;strokeColor=#2D7600;" parent="1" source="8vPuVBHi-M925OJZAEt_-38" target="8vPuVBHi-M925OJZAEt_-11" edge="1">
          <mxGeometry relative="1" as="geometry" />
        </mxCell>
        <mxCell id="8vPuVBHi-M925OJZAEt_-56" style="edgeStyle=none;rounded=0;orthogonalLoop=1;jettySize=auto;html=1;exitX=1;exitY=0;exitDx=0;exitDy=0;entryX=0.5;entryY=1;entryDx=0;entryDy=0;endArrow=none;endFill=0;fillColor=#60a917;strokeColor=#2D7600;" parent="1" source="8vPuVBHi-M925OJZAEt_-38" target="8vPuVBHi-M925OJZAEt_-13" edge="1">
          <mxGeometry relative="1" as="geometry" />
        </mxCell>
        <mxCell id="8vPuVBHi-M925OJZAEt_-57" style="edgeStyle=none;rounded=0;orthogonalLoop=1;jettySize=auto;html=1;exitX=1;exitY=0;exitDx=0;exitDy=0;entryX=0.5;entryY=1;entryDx=0;entryDy=0;endArrow=none;endFill=0;fillColor=#60a917;strokeColor=#2D7600;" parent="1" source="8vPuVBHi-M925OJZAEt_-38" target="8vPuVBHi-M925OJZAEt_-15" edge="1">
          <mxGeometry relative="1" as="geometry" />
        </mxCell>
        <mxCell id="8vPuVBHi-M925OJZAEt_-58" style="edgeStyle=none;rounded=0;orthogonalLoop=1;jettySize=auto;html=1;entryX=0.5;entryY=1;entryDx=0;entryDy=0;endArrow=none;endFill=0;fillColor=#60a917;strokeColor=#2D7600;" parent="1" source="8vPuVBHi-M925OJZAEt_-38" target="8vPuVBHi-M925OJZAEt_-12" edge="1">
          <mxGeometry relative="1" as="geometry" />
        </mxCell>
        <mxCell id="8vPuVBHi-M925OJZAEt_-59" style="edgeStyle=none;rounded=0;orthogonalLoop=1;jettySize=auto;html=1;entryX=0.5;entryY=1;entryDx=0;entryDy=0;endArrow=none;endFill=0;fillColor=#60a917;strokeColor=#2D7600;" parent="1" source="8vPuVBHi-M925OJZAEt_-38" target="8vPuVBHi-M925OJZAEt_-16" edge="1">
          <mxGeometry relative="1" as="geometry" />
        </mxCell>
        <mxCell id="8vPuVBHi-M925OJZAEt_-38" value="" style="ellipse;whiteSpace=wrap;html=1;fillColor=#60a917;strokeColor=#2D7600;fontColor=#ffffff;" parent="1" vertex="1">
          <mxGeometry x="200" y="660" width="30" height="30" as="geometry" />
        </mxCell>
        <mxCell id="8vPuVBHi-M925OJZAEt_-60" style="edgeStyle=none;rounded=0;orthogonalLoop=1;jettySize=auto;html=1;entryX=0.5;entryY=1;entryDx=0;entryDy=0;endArrow=none;endFill=0;fillColor=#60a917;strokeColor=#2D7600;" parent="1" source="8vPuVBHi-M925OJZAEt_-39" target="8vPuVBHi-M925OJZAEt_-11" edge="1">
          <mxGeometry relative="1" as="geometry" />
        </mxCell>
        <mxCell id="8vPuVBHi-M925OJZAEt_-61" style="edgeStyle=none;rounded=0;orthogonalLoop=1;jettySize=auto;html=1;endArrow=none;endFill=0;fillColor=#60a917;strokeColor=#2D7600;" parent="1" source="8vPuVBHi-M925OJZAEt_-39" edge="1">
          <mxGeometry relative="1" as="geometry">
            <mxPoint x="300" y="620" as="targetPoint" />
          </mxGeometry>
        </mxCell>
        <mxCell id="8vPuVBHi-M925OJZAEt_-62" style="edgeStyle=none;rounded=0;orthogonalLoop=1;jettySize=auto;html=1;endArrow=none;endFill=0;fillColor=#60a917;strokeColor=#2D7600;" parent="1" source="8vPuVBHi-M925OJZAEt_-39" edge="1">
          <mxGeometry relative="1" as="geometry">
            <mxPoint x="360" y="620" as="targetPoint" />
          </mxGeometry>
        </mxCell>
        <mxCell id="8vPuVBHi-M925OJZAEt_-63" style="edgeStyle=none;rounded=0;orthogonalLoop=1;jettySize=auto;html=1;endArrow=none;endFill=0;fillColor=#60a917;strokeColor=#2D7600;" parent="1" source="8vPuVBHi-M925OJZAEt_-39" edge="1">
          <mxGeometry relative="1" as="geometry">
            <mxPoint x="420" y="610" as="targetPoint" />
          </mxGeometry>
        </mxCell>
        <mxCell id="8vPuVBHi-M925OJZAEt_-64" style="edgeStyle=none;rounded=0;orthogonalLoop=1;jettySize=auto;html=1;endArrow=none;endFill=0;fillColor=#60a917;strokeColor=#2D7600;" parent="1" source="8vPuVBHi-M925OJZAEt_-39" edge="1">
          <mxGeometry relative="1" as="geometry">
            <mxPoint x="470" y="620" as="targetPoint" />
          </mxGeometry>
        </mxCell>
        <mxCell id="8vPuVBHi-M925OJZAEt_-39" value="" style="ellipse;whiteSpace=wrap;html=1;fillColor=#60a917;strokeColor=#2D7600;fontColor=#ffffff;" parent="1" vertex="1">
          <mxGeometry x="250" y="660" width="30" height="30" as="geometry" />
        </mxCell>
        <mxCell id="8vPuVBHi-M925OJZAEt_-65" style="edgeStyle=none;rounded=0;orthogonalLoop=1;jettySize=auto;html=1;entryX=0.5;entryY=1;entryDx=0;entryDy=0;endArrow=none;endFill=0;fillColor=#60a917;strokeColor=#2D7600;" parent="1" source="8vPuVBHi-M925OJZAEt_-40" target="8vPuVBHi-M925OJZAEt_-11" edge="1">
          <mxGeometry relative="1" as="geometry" />
        </mxCell>
        <mxCell id="8vPuVBHi-M925OJZAEt_-66" style="edgeStyle=none;rounded=0;orthogonalLoop=1;jettySize=auto;html=1;endArrow=none;endFill=0;fillColor=#60a917;strokeColor=#2D7600;" parent="1" source="8vPuVBHi-M925OJZAEt_-40" edge="1">
          <mxGeometry relative="1" as="geometry">
            <mxPoint x="300" y="610" as="targetPoint" />
          </mxGeometry>
        </mxCell>
        <mxCell id="8vPuVBHi-M925OJZAEt_-67" style="edgeStyle=none;rounded=0;orthogonalLoop=1;jettySize=auto;html=1;endArrow=none;endFill=0;fillColor=#60a917;strokeColor=#2D7600;" parent="1" source="8vPuVBHi-M925OJZAEt_-40" edge="1">
          <mxGeometry relative="1" as="geometry">
            <mxPoint x="360" y="620" as="targetPoint" />
          </mxGeometry>
        </mxCell>
        <mxCell id="8vPuVBHi-M925OJZAEt_-68" style="edgeStyle=none;rounded=0;orthogonalLoop=1;jettySize=auto;html=1;endArrow=none;endFill=0;fillColor=#60a917;strokeColor=#2D7600;" parent="1" source="8vPuVBHi-M925OJZAEt_-40" edge="1">
          <mxGeometry relative="1" as="geometry">
            <mxPoint x="420" y="610" as="targetPoint" />
          </mxGeometry>
        </mxCell>
        <mxCell id="8vPuVBHi-M925OJZAEt_-69" style="edgeStyle=none;rounded=0;orthogonalLoop=1;jettySize=auto;html=1;endArrow=none;endFill=0;fillColor=#60a917;strokeColor=#2D7600;" parent="1" source="8vPuVBHi-M925OJZAEt_-40" edge="1">
          <mxGeometry relative="1" as="geometry">
            <mxPoint x="470" y="620" as="targetPoint" />
          </mxGeometry>
        </mxCell>
        <mxCell id="8vPuVBHi-M925OJZAEt_-40" value="" style="ellipse;whiteSpace=wrap;html=1;fillColor=#60a917;strokeColor=#2D7600;fontColor=#ffffff;" parent="1" vertex="1">
          <mxGeometry x="300" y="660" width="30" height="30" as="geometry" />
        </mxCell>
        <mxCell id="8vPuVBHi-M925OJZAEt_-70" style="edgeStyle=none;rounded=0;orthogonalLoop=1;jettySize=auto;html=1;entryX=0.5;entryY=1;entryDx=0;entryDy=0;endArrow=none;endFill=0;fillColor=#60a917;strokeColor=#2D7600;" parent="1" source="8vPuVBHi-M925OJZAEt_-41" target="8vPuVBHi-M925OJZAEt_-11" edge="1">
          <mxGeometry relative="1" as="geometry" />
        </mxCell>
        <mxCell id="8vPuVBHi-M925OJZAEt_-72" style="edgeStyle=none;rounded=0;orthogonalLoop=1;jettySize=auto;html=1;entryX=0.5;entryY=1;entryDx=0;entryDy=0;endArrow=none;endFill=0;fillColor=#60a917;strokeColor=#2D7600;" parent="1" source="8vPuVBHi-M925OJZAEt_-41" target="8vPuVBHi-M925OJZAEt_-15" edge="1">
          <mxGeometry relative="1" as="geometry" />
        </mxCell>
        <mxCell id="8vPuVBHi-M925OJZAEt_-74" style="edgeStyle=none;rounded=0;orthogonalLoop=1;jettySize=auto;html=1;entryX=0.5;entryY=1;entryDx=0;entryDy=0;endArrow=none;endFill=0;fillColor=#60a917;strokeColor=#2D7600;" parent="1" source="8vPuVBHi-M925OJZAEt_-41" target="8vPuVBHi-M925OJZAEt_-12" edge="1">
          <mxGeometry relative="1" as="geometry" />
        </mxCell>
        <mxCell id="8vPuVBHi-M925OJZAEt_-76" style="edgeStyle=none;rounded=0;orthogonalLoop=1;jettySize=auto;html=1;entryX=0.5;entryY=1;entryDx=0;entryDy=0;endArrow=none;endFill=0;fillColor=#60a917;strokeColor=#2D7600;" parent="1" source="8vPuVBHi-M925OJZAEt_-41" target="8vPuVBHi-M925OJZAEt_-16" edge="1">
          <mxGeometry relative="1" as="geometry" />
        </mxCell>
        <mxCell id="8vPuVBHi-M925OJZAEt_-77" style="edgeStyle=none;rounded=0;orthogonalLoop=1;jettySize=auto;html=1;entryX=0.5;entryY=1;entryDx=0;entryDy=0;endArrow=none;endFill=0;fillColor=#60a917;strokeColor=#2D7600;" parent="1" source="8vPuVBHi-M925OJZAEt_-41" target="8vPuVBHi-M925OJZAEt_-13" edge="1">
          <mxGeometry relative="1" as="geometry" />
        </mxCell>
        <mxCell id="8vPuVBHi-M925OJZAEt_-41" value="" style="ellipse;whiteSpace=wrap;html=1;fillColor=#60a917;strokeColor=#2D7600;fontColor=#ffffff;" parent="1" vertex="1">
          <mxGeometry x="390" y="660" width="30" height="30" as="geometry" />
        </mxCell>
        <mxCell id="8vPuVBHi-M925OJZAEt_-78" style="edgeStyle=none;rounded=0;orthogonalLoop=1;jettySize=auto;html=1;exitX=0;exitY=0;exitDx=0;exitDy=0;entryX=0.5;entryY=1;entryDx=0;entryDy=0;endArrow=none;endFill=0;fillColor=#60a917;strokeColor=#2D7600;" parent="1" source="8vPuVBHi-M925OJZAEt_-42" target="8vPuVBHi-M925OJZAEt_-11" edge="1">
          <mxGeometry relative="1" as="geometry" />
        </mxCell>
        <mxCell id="8vPuVBHi-M925OJZAEt_-79" style="edgeStyle=none;rounded=0;orthogonalLoop=1;jettySize=auto;html=1;entryX=0.5;entryY=1;entryDx=0;entryDy=0;endArrow=none;endFill=0;fillColor=#60a917;strokeColor=#2D7600;" parent="1" source="8vPuVBHi-M925OJZAEt_-42" target="8vPuVBHi-M925OJZAEt_-15" edge="1">
          <mxGeometry relative="1" as="geometry" />
        </mxCell>
        <mxCell id="8vPuVBHi-M925OJZAEt_-80" style="edgeStyle=none;rounded=0;orthogonalLoop=1;jettySize=auto;html=1;entryX=0.5;entryY=1;entryDx=0;entryDy=0;endArrow=none;endFill=0;fillColor=#60a917;strokeColor=#2D7600;" parent="1" source="8vPuVBHi-M925OJZAEt_-42" target="8vPuVBHi-M925OJZAEt_-12" edge="1">
          <mxGeometry relative="1" as="geometry" />
        </mxCell>
        <mxCell id="8vPuVBHi-M925OJZAEt_-81" style="edgeStyle=none;rounded=0;orthogonalLoop=1;jettySize=auto;html=1;entryX=0.5;entryY=1;entryDx=0;entryDy=0;endArrow=none;endFill=0;fillColor=#60a917;strokeColor=#2D7600;" parent="1" source="8vPuVBHi-M925OJZAEt_-42" target="8vPuVBHi-M925OJZAEt_-16" edge="1">
          <mxGeometry relative="1" as="geometry" />
        </mxCell>
        <mxCell id="8vPuVBHi-M925OJZAEt_-82" style="edgeStyle=none;rounded=0;orthogonalLoop=1;jettySize=auto;html=1;endArrow=none;endFill=0;fillColor=#60a917;strokeColor=#2D7600;" parent="1" source="8vPuVBHi-M925OJZAEt_-42" edge="1">
          <mxGeometry relative="1" as="geometry">
            <mxPoint x="480" y="620" as="targetPoint" />
          </mxGeometry>
        </mxCell>
        <mxCell id="8vPuVBHi-M925OJZAEt_-42" value="" style="ellipse;whiteSpace=wrap;html=1;fillColor=#60a917;strokeColor=#2D7600;fontColor=#ffffff;" parent="1" vertex="1">
          <mxGeometry x="450" y="660" width="30" height="30" as="geometry" />
        </mxCell>
        <mxCell id="8vPuVBHi-M925OJZAEt_-83" style="edgeStyle=none;rounded=0;orthogonalLoop=1;jettySize=auto;html=1;entryX=0.5;entryY=1;entryDx=0;entryDy=0;endArrow=none;endFill=0;fillColor=#60a917;strokeColor=#2D7600;" parent="1" source="8vPuVBHi-M925OJZAEt_-43" target="8vPuVBHi-M925OJZAEt_-11" edge="1">
          <mxGeometry relative="1" as="geometry" />
        </mxCell>
        <mxCell id="8vPuVBHi-M925OJZAEt_-84" style="edgeStyle=none;rounded=0;orthogonalLoop=1;jettySize=auto;html=1;entryX=0.5;entryY=1;entryDx=0;entryDy=0;endArrow=none;endFill=0;fillColor=#60a917;strokeColor=#2D7600;" parent="1" source="8vPuVBHi-M925OJZAEt_-43" target="8vPuVBHi-M925OJZAEt_-15" edge="1">
          <mxGeometry relative="1" as="geometry" />
        </mxCell>
        <mxCell id="8vPuVBHi-M925OJZAEt_-85" style="edgeStyle=none;rounded=0;orthogonalLoop=1;jettySize=auto;html=1;entryX=0.5;entryY=1;entryDx=0;entryDy=0;endArrow=none;endFill=0;fillColor=#60a917;strokeColor=#2D7600;" parent="1" source="8vPuVBHi-M925OJZAEt_-43" target="8vPuVBHi-M925OJZAEt_-12" edge="1">
          <mxGeometry relative="1" as="geometry" />
        </mxCell>
        <mxCell id="8vPuVBHi-M925OJZAEt_-86" style="edgeStyle=none;rounded=0;orthogonalLoop=1;jettySize=auto;html=1;entryX=0.5;entryY=1;entryDx=0;entryDy=0;endArrow=none;endFill=0;fillColor=#60a917;strokeColor=#2D7600;" parent="1" source="8vPuVBHi-M925OJZAEt_-43" target="8vPuVBHi-M925OJZAEt_-16" edge="1">
          <mxGeometry relative="1" as="geometry" />
        </mxCell>
        <mxCell id="8vPuVBHi-M925OJZAEt_-87" style="edgeStyle=none;rounded=0;orthogonalLoop=1;jettySize=auto;html=1;entryX=0.5;entryY=1;entryDx=0;entryDy=0;endArrow=none;endFill=0;fillColor=#60a917;strokeColor=#2D7600;" parent="1" source="8vPuVBHi-M925OJZAEt_-43" target="8vPuVBHi-M925OJZAEt_-13" edge="1">
          <mxGeometry relative="1" as="geometry" />
        </mxCell>
        <mxCell id="8vPuVBHi-M925OJZAEt_-43" value="" style="ellipse;whiteSpace=wrap;html=1;fillColor=#60a917;strokeColor=#2D7600;fontColor=#ffffff;" parent="1" vertex="1">
          <mxGeometry x="510" y="660" width="30" height="30" as="geometry" />
        </mxCell>
        <mxCell id="8vPuVBHi-M925OJZAEt_-44" value="" style="rounded=0;whiteSpace=wrap;html=1;" parent="1" vertex="1">
          <mxGeometry x="100" y="780" width="240" height="40" as="geometry" />
        </mxCell>
        <mxCell id="8vPuVBHi-M925OJZAEt_-110" style="edgeStyle=none;rounded=0;orthogonalLoop=1;jettySize=auto;html=1;entryX=0.5;entryY=1;entryDx=0;entryDy=0;endArrow=none;endFill=0;strokeWidth=1;fillColor=#b0e3e6;strokeColor=#0e8088;" parent="1" source="8vPuVBHi-M925OJZAEt_-45" target="8vPuVBHi-M925OJZAEt_-38" edge="1">
          <mxGeometry relative="1" as="geometry" />
        </mxCell>
        <mxCell id="8vPuVBHi-M925OJZAEt_-111" style="edgeStyle=none;rounded=0;orthogonalLoop=1;jettySize=auto;html=1;entryX=0.5;entryY=1;entryDx=0;entryDy=0;endArrow=none;endFill=0;strokeWidth=1;fillColor=#b0e3e6;strokeColor=#0e8088;" parent="1" source="8vPuVBHi-M925OJZAEt_-45" target="8vPuVBHi-M925OJZAEt_-39" edge="1">
          <mxGeometry relative="1" as="geometry" />
        </mxCell>
        <mxCell id="8vPuVBHi-M925OJZAEt_-112" style="edgeStyle=none;rounded=0;orthogonalLoop=1;jettySize=auto;html=1;entryX=0.5;entryY=1;entryDx=0;entryDy=0;endArrow=none;endFill=0;strokeWidth=1;fillColor=#b0e3e6;strokeColor=#0e8088;" parent="1" source="8vPuVBHi-M925OJZAEt_-45" target="8vPuVBHi-M925OJZAEt_-40" edge="1">
          <mxGeometry relative="1" as="geometry" />
        </mxCell>
        <mxCell id="8vPuVBHi-M925OJZAEt_-45" value="" style="ellipse;whiteSpace=wrap;html=1;" parent="1" vertex="1">
          <mxGeometry x="220" y="785" width="30" height="30" as="geometry" />
        </mxCell>
        <mxCell id="8vPuVBHi-M925OJZAEt_-113" style="edgeStyle=none;rounded=0;orthogonalLoop=1;jettySize=auto;html=1;entryX=0.5;entryY=1;entryDx=0;entryDy=0;endArrow=none;endFill=0;strokeWidth=1;fillColor=#b0e3e6;strokeColor=#0e8088;" parent="1" source="8vPuVBHi-M925OJZAEt_-46" target="8vPuVBHi-M925OJZAEt_-38" edge="1">
          <mxGeometry relative="1" as="geometry" />
        </mxCell>
        <mxCell id="8vPuVBHi-M925OJZAEt_-114" style="edgeStyle=none;rounded=0;orthogonalLoop=1;jettySize=auto;html=1;entryX=0.5;entryY=1;entryDx=0;entryDy=0;endArrow=none;endFill=0;strokeWidth=1;fillColor=#b0e3e6;strokeColor=#0e8088;" parent="1" source="8vPuVBHi-M925OJZAEt_-46" target="8vPuVBHi-M925OJZAEt_-39" edge="1">
          <mxGeometry relative="1" as="geometry" />
        </mxCell>
        <mxCell id="8vPuVBHi-M925OJZAEt_-115" style="edgeStyle=none;rounded=0;orthogonalLoop=1;jettySize=auto;html=1;entryX=0.5;entryY=1;entryDx=0;entryDy=0;endArrow=none;endFill=0;strokeWidth=1;fillColor=#b0e3e6;strokeColor=#0e8088;" parent="1" source="8vPuVBHi-M925OJZAEt_-46" target="8vPuVBHi-M925OJZAEt_-40" edge="1">
          <mxGeometry relative="1" as="geometry" />
        </mxCell>
        <mxCell id="8vPuVBHi-M925OJZAEt_-46" value="" style="ellipse;whiteSpace=wrap;html=1;" parent="1" vertex="1">
          <mxGeometry x="300" y="785" width="30" height="30" as="geometry" />
        </mxCell>
        <mxCell id="8vPuVBHi-M925OJZAEt_-89" style="edgeStyle=none;rounded=0;orthogonalLoop=1;jettySize=auto;html=1;entryX=0.5;entryY=1;entryDx=0;entryDy=0;endArrow=none;endFill=0;strokeWidth=4;fillColor=#60a917;strokeColor=#2D7600;" parent="1" source="8vPuVBHi-M925OJZAEt_-47" target="8vPuVBHi-M925OJZAEt_-38" edge="1">
          <mxGeometry relative="1" as="geometry" />
        </mxCell>
        <mxCell id="8vPuVBHi-M925OJZAEt_-90" style="edgeStyle=none;rounded=0;orthogonalLoop=1;jettySize=auto;html=1;entryX=0.5;entryY=1;entryDx=0;entryDy=0;endArrow=none;endFill=0;strokeWidth=4;fillColor=#60a917;strokeColor=#2D7600;" parent="1" source="8vPuVBHi-M925OJZAEt_-47" target="8vPuVBHi-M925OJZAEt_-39" edge="1">
          <mxGeometry relative="1" as="geometry" />
        </mxCell>
        <mxCell id="8vPuVBHi-M925OJZAEt_-91" style="edgeStyle=none;rounded=0;orthogonalLoop=1;jettySize=auto;html=1;entryX=0.5;entryY=1;entryDx=0;entryDy=0;endArrow=none;endFill=0;strokeWidth=4;fillColor=#60a917;strokeColor=#2D7600;" parent="1" source="8vPuVBHi-M925OJZAEt_-47" target="8vPuVBHi-M925OJZAEt_-40" edge="1">
          <mxGeometry relative="1" as="geometry" />
        </mxCell>
        <mxCell id="8vPuVBHi-M925OJZAEt_-47" value="" style="ellipse;whiteSpace=wrap;html=1;fillColor=#60a917;strokeColor=#2D7600;fontColor=#ffffff;" parent="1" vertex="1">
          <mxGeometry x="260" y="785" width="30" height="30" as="geometry" />
        </mxCell>
        <mxCell id="8vPuVBHi-M925OJZAEt_-106" style="edgeStyle=none;rounded=0;orthogonalLoop=1;jettySize=auto;html=1;entryX=0.5;entryY=1;entryDx=0;entryDy=0;endArrow=none;endFill=0;strokeWidth=1;fillColor=#b0e3e6;strokeColor=#0e8088;" parent="1" source="8vPuVBHi-M925OJZAEt_-48" target="8vPuVBHi-M925OJZAEt_-39" edge="1">
          <mxGeometry relative="1" as="geometry" />
        </mxCell>
        <mxCell id="8vPuVBHi-M925OJZAEt_-107" style="edgeStyle=none;rounded=0;orthogonalLoop=1;jettySize=auto;html=1;entryX=0.5;entryY=1;entryDx=0;entryDy=0;endArrow=none;endFill=0;strokeWidth=1;fillColor=#b0e3e6;strokeColor=#0e8088;" parent="1" source="8vPuVBHi-M925OJZAEt_-48" target="8vPuVBHi-M925OJZAEt_-40" edge="1">
          <mxGeometry relative="1" as="geometry" />
        </mxCell>
        <mxCell id="8vPuVBHi-M925OJZAEt_-109" style="edgeStyle=none;rounded=0;orthogonalLoop=1;jettySize=auto;html=1;entryX=0.5;entryY=1;entryDx=0;entryDy=0;endArrow=none;endFill=0;strokeWidth=1;fillColor=#b0e3e6;strokeColor=#0e8088;" parent="1" source="8vPuVBHi-M925OJZAEt_-48" target="8vPuVBHi-M925OJZAEt_-38" edge="1">
          <mxGeometry relative="1" as="geometry" />
        </mxCell>
        <mxCell id="8vPuVBHi-M925OJZAEt_-48" value="" style="ellipse;whiteSpace=wrap;html=1;" parent="1" vertex="1">
          <mxGeometry x="110" y="785" width="30" height="30" as="geometry" />
        </mxCell>
        <mxCell id="8vPuVBHi-M925OJZAEt_-49" value="" style="rounded=0;whiteSpace=wrap;html=1;" parent="1" vertex="1">
          <mxGeometry x="380" y="780" width="240" height="40" as="geometry" />
        </mxCell>
        <mxCell id="8vPuVBHi-M925OJZAEt_-101" style="edgeStyle=none;rounded=0;orthogonalLoop=1;jettySize=auto;html=1;entryX=0.5;entryY=1;entryDx=0;entryDy=0;endArrow=none;endFill=0;strokeWidth=4;fillColor=#60a917;strokeColor=#2D7600;" parent="1" source="8vPuVBHi-M925OJZAEt_-50" target="8vPuVBHi-M925OJZAEt_-41" edge="1">
          <mxGeometry relative="1" as="geometry" />
        </mxCell>
        <mxCell id="8vPuVBHi-M925OJZAEt_-102" style="edgeStyle=none;rounded=0;orthogonalLoop=1;jettySize=auto;html=1;entryX=0.5;entryY=1;entryDx=0;entryDy=0;endArrow=none;endFill=0;strokeWidth=4;fillColor=#60a917;strokeColor=#2D7600;" parent="1" source="8vPuVBHi-M925OJZAEt_-50" target="8vPuVBHi-M925OJZAEt_-42" edge="1">
          <mxGeometry relative="1" as="geometry" />
        </mxCell>
        <mxCell id="8vPuVBHi-M925OJZAEt_-103" style="edgeStyle=none;rounded=0;orthogonalLoop=1;jettySize=auto;html=1;entryX=0.5;entryY=1;entryDx=0;entryDy=0;endArrow=none;endFill=0;strokeWidth=4;fillColor=#60a917;strokeColor=#2D7600;" parent="1" source="8vPuVBHi-M925OJZAEt_-50" target="8vPuVBHi-M925OJZAEt_-43" edge="1">
          <mxGeometry relative="1" as="geometry" />
        </mxCell>
        <mxCell id="8vPuVBHi-M925OJZAEt_-50" value="" style="ellipse;whiteSpace=wrap;html=1;fillColor=#60a917;fontColor=#ffffff;strokeColor=#2D7600;" parent="1" vertex="1">
          <mxGeometry x="470" y="785" width="30" height="30" as="geometry" />
        </mxCell>
        <mxCell id="8vPuVBHi-M925OJZAEt_-122" style="edgeStyle=none;rounded=0;orthogonalLoop=1;jettySize=auto;html=1;entryX=0.5;entryY=1;entryDx=0;entryDy=0;endArrow=none;endFill=0;strokeWidth=1;fillColor=#b0e3e6;strokeColor=#0e8088;" parent="1" source="8vPuVBHi-M925OJZAEt_-51" target="8vPuVBHi-M925OJZAEt_-41" edge="1">
          <mxGeometry relative="1" as="geometry" />
        </mxCell>
        <mxCell id="8vPuVBHi-M925OJZAEt_-123" style="edgeStyle=none;rounded=0;orthogonalLoop=1;jettySize=auto;html=1;entryX=0.5;entryY=1;entryDx=0;entryDy=0;endArrow=none;endFill=0;strokeWidth=1;fillColor=#b0e3e6;strokeColor=#0e8088;" parent="1" source="8vPuVBHi-M925OJZAEt_-51" target="8vPuVBHi-M925OJZAEt_-42" edge="1">
          <mxGeometry relative="1" as="geometry" />
        </mxCell>
        <mxCell id="8vPuVBHi-M925OJZAEt_-124" style="edgeStyle=none;rounded=0;orthogonalLoop=1;jettySize=auto;html=1;entryX=0.5;entryY=1;entryDx=0;entryDy=0;endArrow=none;endFill=0;strokeWidth=1;fillColor=#b0e3e6;strokeColor=#0e8088;" parent="1" source="8vPuVBHi-M925OJZAEt_-51" target="8vPuVBHi-M925OJZAEt_-43" edge="1">
          <mxGeometry relative="1" as="geometry" />
        </mxCell>
        <mxCell id="8vPuVBHi-M925OJZAEt_-51" value="" style="ellipse;whiteSpace=wrap;html=1;" parent="1" vertex="1">
          <mxGeometry x="580" y="785" width="30" height="30" as="geometry" />
        </mxCell>
        <mxCell id="8vPuVBHi-M925OJZAEt_-119" style="edgeStyle=none;rounded=0;orthogonalLoop=1;jettySize=auto;html=1;entryX=0.5;entryY=1;entryDx=0;entryDy=0;endArrow=none;endFill=0;strokeWidth=1;fillColor=#b0e3e6;strokeColor=#0e8088;" parent="1" source="8vPuVBHi-M925OJZAEt_-52" target="8vPuVBHi-M925OJZAEt_-41" edge="1">
          <mxGeometry relative="1" as="geometry" />
        </mxCell>
        <mxCell id="8vPuVBHi-M925OJZAEt_-120" style="edgeStyle=none;rounded=0;orthogonalLoop=1;jettySize=auto;html=1;entryX=0.5;entryY=1;entryDx=0;entryDy=0;endArrow=none;endFill=0;strokeWidth=1;fillColor=#b0e3e6;strokeColor=#0e8088;" parent="1" source="8vPuVBHi-M925OJZAEt_-52" target="8vPuVBHi-M925OJZAEt_-42" edge="1">
          <mxGeometry relative="1" as="geometry" />
        </mxCell>
        <mxCell id="8vPuVBHi-M925OJZAEt_-121" style="edgeStyle=none;rounded=0;orthogonalLoop=1;jettySize=auto;html=1;entryX=0.5;entryY=1;entryDx=0;entryDy=0;endArrow=none;endFill=0;strokeWidth=1;fillColor=#b0e3e6;strokeColor=#0e8088;" parent="1" source="8vPuVBHi-M925OJZAEt_-52" target="8vPuVBHi-M925OJZAEt_-43" edge="1">
          <mxGeometry relative="1" as="geometry" />
        </mxCell>
        <mxCell id="8vPuVBHi-M925OJZAEt_-52" value="" style="ellipse;whiteSpace=wrap;html=1;" parent="1" vertex="1">
          <mxGeometry x="430" y="785" width="30" height="30" as="geometry" />
        </mxCell>
        <mxCell id="8vPuVBHi-M925OJZAEt_-116" style="edgeStyle=none;rounded=0;orthogonalLoop=1;jettySize=auto;html=1;entryX=0.5;entryY=1;entryDx=0;entryDy=0;endArrow=none;endFill=0;strokeWidth=1;fillColor=#b0e3e6;strokeColor=#0e8088;" parent="1" source="8vPuVBHi-M925OJZAEt_-53" target="8vPuVBHi-M925OJZAEt_-41" edge="1">
          <mxGeometry relative="1" as="geometry" />
        </mxCell>
        <mxCell id="8vPuVBHi-M925OJZAEt_-117" style="edgeStyle=none;rounded=0;orthogonalLoop=1;jettySize=auto;html=1;entryX=0.5;entryY=1;entryDx=0;entryDy=0;endArrow=none;endFill=0;strokeWidth=1;fillColor=#b0e3e6;strokeColor=#0e8088;" parent="1" source="8vPuVBHi-M925OJZAEt_-53" target="8vPuVBHi-M925OJZAEt_-42" edge="1">
          <mxGeometry relative="1" as="geometry" />
        </mxCell>
        <mxCell id="8vPuVBHi-M925OJZAEt_-118" style="edgeStyle=none;rounded=0;orthogonalLoop=1;jettySize=auto;html=1;entryX=0.5;entryY=1;entryDx=0;entryDy=0;endArrow=none;endFill=0;strokeWidth=1;fillColor=#b0e3e6;strokeColor=#0e8088;" parent="1" source="8vPuVBHi-M925OJZAEt_-53" target="8vPuVBHi-M925OJZAEt_-43" edge="1">
          <mxGeometry relative="1" as="geometry" />
        </mxCell>
        <mxCell id="8vPuVBHi-M925OJZAEt_-53" value="" style="ellipse;whiteSpace=wrap;html=1;" parent="1" vertex="1">
          <mxGeometry x="390" y="785" width="30" height="30" as="geometry" />
        </mxCell>
        <mxCell id="8vPuVBHi-M925OJZAEt_-93" value="" style="ellipse;whiteSpace=wrap;html=1;aspect=fixed;fillColor=#647687;fontColor=#ffffff;strokeColor=#314354;" parent="1" vertex="1">
          <mxGeometry x="150" y="795" width="10" height="10" as="geometry" />
        </mxCell>
        <mxCell id="8vPuVBHi-M925OJZAEt_-94" value="" style="ellipse;whiteSpace=wrap;html=1;aspect=fixed;fillColor=#647687;fontColor=#ffffff;strokeColor=#314354;" parent="1" vertex="1">
          <mxGeometry x="170" y="795" width="10" height="10" as="geometry" />
        </mxCell>
        <mxCell id="8vPuVBHi-M925OJZAEt_-95" value="" style="ellipse;whiteSpace=wrap;html=1;aspect=fixed;fillColor=#647687;fontColor=#ffffff;strokeColor=#314354;" parent="1" vertex="1">
          <mxGeometry x="190" y="795" width="10" height="10" as="geometry" />
        </mxCell>
        <mxCell id="8vPuVBHi-M925OJZAEt_-97" value="" style="ellipse;whiteSpace=wrap;html=1;aspect=fixed;fillColor=#647687;fontColor=#ffffff;strokeColor=#314354;" parent="1" vertex="1">
          <mxGeometry x="510" y="795" width="10" height="10" as="geometry" />
        </mxCell>
        <mxCell id="8vPuVBHi-M925OJZAEt_-98" value="" style="ellipse;whiteSpace=wrap;html=1;aspect=fixed;fillColor=#647687;fontColor=#ffffff;strokeColor=#314354;" parent="1" vertex="1">
          <mxGeometry x="530" y="795" width="10" height="10" as="geometry" />
        </mxCell>
        <mxCell id="8vPuVBHi-M925OJZAEt_-99" value="" style="ellipse;whiteSpace=wrap;html=1;aspect=fixed;fillColor=#647687;fontColor=#ffffff;strokeColor=#314354;" parent="1" vertex="1">
          <mxGeometry x="550" y="795" width="10" height="10" as="geometry" />
        </mxCell>
        <mxCell id="FdIfhm-zR5fG49HMr42E-6" style="edgeStyle=elbowEdgeStyle;rounded=0;orthogonalLoop=1;jettySize=auto;html=1;exitX=0.5;exitY=0;exitDx=0;exitDy=0;entryX=0;entryY=0.5;entryDx=0;entryDy=0;shape=flexArrow;strokeWidth=3;" parent="1" source="8vPuVBHi-M925OJZAEt_-126" target="FdIfhm-zR5fG49HMr42E-4" edge="1">
          <mxGeometry relative="1" as="geometry">
            <Array as="points">
              <mxPoint x="363" y="420" />
            </Array>
          </mxGeometry>
        </mxCell>
        <mxCell id="8vPuVBHi-M925OJZAEt_-126" value="" style="rounded=1;whiteSpace=wrap;html=1;strokeColor=#FFB570;strokeWidth=3;fillColor=none;" parent="1" vertex="1">
          <mxGeometry x="155" y="440" width="415" height="270" as="geometry" />
        </mxCell>
        <mxCell id="i-2k-Nz9v-7GDRqeBD3D-16" style="edgeStyle=elbowEdgeStyle;shape=flexArrow;rounded=0;orthogonalLoop=1;jettySize=auto;elbow=vertical;html=1;fontSize=16;strokeWidth=3;" edge="1" parent="1" source="8vPuVBHi-M925OJZAEt_-127" target="FdIfhm-zR5fG49HMr42E-3">
          <mxGeometry relative="1" as="geometry" />
        </mxCell>
        <mxCell id="8vPuVBHi-M925OJZAEt_-127" value="" style="rounded=1;whiteSpace=wrap;html=1;strokeColor=#FFB570;strokeWidth=3;fillColor=none;" parent="1" vertex="1">
          <mxGeometry x="80" y="740" width="620" height="100" as="geometry" />
        </mxCell>
        <mxCell id="8vPuVBHi-M925OJZAEt_-131" value="&lt;font style=&quot;font-size: 18px&quot;&gt;MB级别DNN参数&lt;/font&gt;" style="text;html=1;align=center;verticalAlign=middle;resizable=0;points=[];autosize=1;strokeColor=none;fillColor=none;" parent="1" vertex="1">
          <mxGeometry x="410" y="470" width="150" height="20" as="geometry" />
        </mxCell>
        <mxCell id="8vPuVBHi-M925OJZAEt_-133" value="&lt;font style=&quot;font-size: 18px&quot;&gt;TB级别Embedding变量&lt;/font&gt;" style="text;html=1;align=center;verticalAlign=middle;resizable=0;points=[];autosize=1;strokeColor=none;fillColor=none;" parent="1" vertex="1">
          <mxGeometry x="500" y="750" width="200" height="20" as="geometry" />
        </mxCell>
        <mxCell id="FdIfhm-zR5fG49HMr42E-3" value="" style="rounded=0;whiteSpace=wrap;html=1;strokeColor=#9933FF;strokeWidth=2;" parent="1" vertex="1">
          <mxGeometry x="810" y="615" width="415.3" height="290" as="geometry" />
        </mxCell>
        <mxCell id="FdIfhm-zR5fG49HMr42E-4" value="" style="rounded=0;whiteSpace=wrap;html=1;strokeWidth=2;strokeColor=#007FFF;" parent="1" vertex="1">
          <mxGeometry x="900" y="350" width="260" height="130" as="geometry" />
        </mxCell>
        <mxCell id="i-2k-Nz9v-7GDRqeBD3D-2" style="rounded=0;orthogonalLoop=1;jettySize=auto;html=1;entryX=0.5;entryY=1;entryDx=0;entryDy=0;strokeWidth=3;" edge="1" parent="1" source="FdIfhm-zR5fG49HMr42E-1" target="FdIfhm-zR5fG49HMr42E-7">
          <mxGeometry relative="1" as="geometry" />
        </mxCell>
        <mxCell id="i-2k-Nz9v-7GDRqeBD3D-5" style="edgeStyle=none;rounded=0;orthogonalLoop=1;jettySize=auto;html=1;entryX=0.5;entryY=1;entryDx=0;entryDy=0;fontSize=16;strokeWidth=3;" edge="1" parent="1" source="FdIfhm-zR5fG49HMr42E-1" target="FdIfhm-zR5fG49HMr42E-8">
          <mxGeometry relative="1" as="geometry" />
        </mxCell>
        <mxCell id="FdIfhm-zR5fG49HMr42E-1" value="&lt;font style=&quot;font-size: 18px&quot;&gt;SDK&lt;/font&gt;" style="rounded=0;whiteSpace=wrap;html=1;direction=west;" parent="1" vertex="1">
          <mxGeometry x="970" y="410" width="110" height="40" as="geometry" />
        </mxCell>
        <mxCell id="FdIfhm-zR5fG49HMr42E-7" value="" style="rounded=0;whiteSpace=wrap;html=1;fontSize=18;direction=west;" parent="1" vertex="1">
          <mxGeometry x="843.13" y="719" width="140" height="153" as="geometry" />
        </mxCell>
        <mxCell id="FdIfhm-zR5fG49HMr42E-8" value="" style="rounded=0;whiteSpace=wrap;html=1;fontSize=18;direction=west;" parent="1" vertex="1">
          <mxGeometry x="1057.83" y="710" width="149.05" height="162" as="geometry" />
        </mxCell>
        <mxCell id="FdIfhm-zR5fG49HMr42E-9" value="副本1" style="shape=cylinder3;whiteSpace=wrap;html=1;boundedLbl=1;backgroundOutline=1;size=15;fontSize=18;" parent="1" vertex="1">
          <mxGeometry x="850.51" y="761" width="52.62" height="99" as="geometry" />
        </mxCell>
        <mxCell id="FdIfhm-zR5fG49HMr42E-10" value="副本2" style="shape=cylinder3;whiteSpace=wrap;html=1;boundedLbl=1;backgroundOutline=1;size=15;fontSize=18;" parent="1" vertex="1">
          <mxGeometry x="914.26" y="761" width="48.87" height="100" as="geometry" />
        </mxCell>
        <mxCell id="FdIfhm-zR5fG49HMr42E-11" value="副本1" style="shape=cylinder3;whiteSpace=wrap;html=1;boundedLbl=1;backgroundOutline=1;size=15;fontSize=18;" parent="1" vertex="1">
          <mxGeometry x="1078.1299999999999" y="762" width="50" height="100" as="geometry" />
        </mxCell>
        <mxCell id="FdIfhm-zR5fG49HMr42E-12" value="副本2" style="shape=cylinder3;whiteSpace=wrap;html=1;boundedLbl=1;backgroundOutline=1;size=15;fontSize=18;" parent="1" vertex="1">
          <mxGeometry x="1136.73" y="762" width="50" height="100" as="geometry" />
        </mxCell>
        <mxCell id="FdIfhm-zR5fG49HMr42E-13" value="&lt;b&gt;Group1&lt;/b&gt;" style="text;html=1;align=center;verticalAlign=middle;resizable=0;points=[];autosize=1;strokeColor=none;fillColor=none;fontSize=18;" parent="1" vertex="1">
          <mxGeometry x="858.13" y="720" width="80" height="30" as="geometry" />
        </mxCell>
        <mxCell id="FdIfhm-zR5fG49HMr42E-14" value="&lt;b&gt;GroupN&lt;/b&gt;" style="text;html=1;align=center;verticalAlign=middle;resizable=0;points=[];autosize=1;strokeColor=none;fillColor=none;fontSize=18;" parent="1" vertex="1">
          <mxGeometry x="1078.1299999999999" y="717" width="80" height="30" as="geometry" />
        </mxCell>
        <mxCell id="FdIfhm-zR5fG49HMr42E-15" value="&lt;font style=&quot;font-size: 20px&quot;&gt;&lt;b&gt;分布式存储集群RondaCache&lt;/b&gt;&lt;/font&gt;" style="text;html=1;align=center;verticalAlign=middle;resizable=0;points=[];autosize=1;strokeColor=none;fillColor=none;fontSize=18;strokeWidth=1;" parent="1" vertex="1">
          <mxGeometry x="818.8999999999999" y="630" width="280" height="30" as="geometry" />
        </mxCell>
        <mxCell id="FdIfhm-zR5fG49HMr42E-16" value="&lt;span style=&quot;font-size: 20px&quot;&gt;&lt;b&gt;serving节点&lt;/b&gt;&lt;/span&gt;" style="text;html=1;align=center;verticalAlign=middle;resizable=0;points=[];autosize=1;strokeColor=none;fillColor=none;fontSize=18;" parent="1" vertex="1">
          <mxGeometry x="970.03" y="364" width="130" height="30" as="geometry" />
        </mxCell>
        <mxCell id="FdIfhm-zR5fG49HMr42E-18" value="" style="ellipse;whiteSpace=wrap;html=1;aspect=fixed;fontSize=20;fillColor=#000000;" parent="1" vertex="1">
          <mxGeometry x="996.88" y="777" width="11.25" height="11.25" as="geometry" />
        </mxCell>
        <mxCell id="FdIfhm-zR5fG49HMr42E-19" value="" style="ellipse;whiteSpace=wrap;html=1;aspect=fixed;fontSize=20;fillColor=#000000;" parent="1" vertex="1">
          <mxGeometry x="1019.88" y="776.75" width="11.25" height="11.25" as="geometry" />
        </mxCell>
        <mxCell id="FdIfhm-zR5fG49HMr42E-20" value="" style="ellipse;whiteSpace=wrap;html=1;aspect=fixed;fontSize=20;fillColor=#000000;" parent="1" vertex="1">
          <mxGeometry x="1041.8799999999999" y="777" width="11" height="11" as="geometry" />
        </mxCell>
        <mxCell id="i-2k-Nz9v-7GDRqeBD3D-3" value="&lt;font style=&quot;font-size: 16px&quot;&gt;&lt;b&gt;上线&lt;/b&gt;&lt;/font&gt;" style="text;html=1;align=center;verticalAlign=middle;resizable=0;points=[];autosize=1;strokeColor=none;fillColor=none;" vertex="1" parent="1">
          <mxGeometry x="620" y="380" width="50" height="20" as="geometry" />
        </mxCell>
        <mxCell id="i-2k-Nz9v-7GDRqeBD3D-4" style="edgeStyle=none;rounded=0;orthogonalLoop=1;jettySize=auto;html=1;entryX=0.5;entryY=1;entryDx=0;entryDy=0;fontSize=16;strokeWidth=2;" edge="1" parent="1" source="8vPuVBHi-M925OJZAEt_-127" target="8vPuVBHi-M925OJZAEt_-127">
          <mxGeometry relative="1" as="geometry" />
        </mxCell>
        <mxCell id="i-2k-Nz9v-7GDRqeBD3D-6" value="&lt;span style=&quot;font-size: 16px&quot;&gt;&lt;b&gt;调用&lt;/b&gt;&lt;/span&gt;" style="text;html=1;align=center;verticalAlign=middle;resizable=0;points=[];autosize=1;strokeColor=none;fillColor=none;" vertex="1" parent="1">
          <mxGeometry x="920.03" y="560" width="50" height="20" as="geometry" />
        </mxCell>
        <mxCell id="i-2k-Nz9v-7GDRqeBD3D-7" value="&lt;span style=&quot;font-size: 16px&quot;&gt;&lt;b&gt;调用&lt;/b&gt;&lt;/span&gt;" style="text;html=1;align=center;verticalAlign=middle;resizable=0;points=[];autosize=1;strokeColor=none;fillColor=none;" vertex="1" parent="1">
          <mxGeometry x="1080" y="560" width="50" height="20" as="geometry" />
        </mxCell>
        <mxCell id="i-2k-Nz9v-7GDRqeBD3D-17" value="&lt;font style=&quot;font-size: 16px&quot;&gt;&lt;b&gt;上线&lt;/b&gt;&lt;/font&gt;" style="text;html=1;align=center;verticalAlign=middle;resizable=0;points=[];autosize=1;strokeColor=none;fillColor=none;" vertex="1" parent="1">
          <mxGeometry x="730" y="750" width="50" height="20" as="geometry" />
        </mxCell>
        <mxCell id="i-2k-Nz9v-7GDRqeBD3D-18" value="留白，方便截图" style="ellipse;whiteSpace=wrap;html=1;fontSize=16;strokeColor=#007FFF;strokeWidth=2;" vertex="1" parent="1">
          <mxGeometry x="783" y="230" width="120" height="80" as="geometry" />
        </mxCell>
        <mxCell id="i-2k-Nz9v-7GDRqeBD3D-19" value="留白，方便截图" style="ellipse;whiteSpace=wrap;html=1;fontSize=16;strokeColor=#007FFF;strokeWidth=2;" vertex="1" parent="1">
          <mxGeometry x="-100" y="610" width="120" height="80" as="geometry" />
        </mxCell>
      </root>
    </mxGraphModel>
  </diagram>
</mxfile>
